<?xml version="1.0" encoding="utf-8"?>
<!-- Generator: Adobe Illustrator 24.0.1, SVG Export Plug-In . SVG Version: 6.00 Build 0)  -->
<svg version="1.1" id="Capa_1" xmlns="http://www.w3.org/2000/svg" xmlns:xlink="http://www.w3.org/1999/xlink" x="0px" y="0px"
	 viewBox="0 0 373.2 373.2" style="enable-background:new 0 0 373.2 373.2;" xml:space="preserve">
<style type="text/css">
	.st0{fill:#FFFAFA;}
</style>
<g>
	<g>
		<path class="st0" d="M187.5,0c-0.1,0-0.3,0-0.6,0C85.7,0,3.4,82.3,3.4,183.5c0,41.3,14.1,81.4,39.9,113.7l-26.7,62.1
			c-2.2,5.1,0.2,11,5.2,13.1c1.8,0.8,3.8,1,5.7,0.7l97.9-17.2c19.6,7.1,40.2,10.7,61,10.6c101.2,0,183.5-82.3,183.5-183.5
			C370.1,82.1,288.4,0.1,187.5,0z M124.7,146.6h54c5.5,0,10,4.5,10,10s-4.5,10-10,10h-54c-5.5,0-10-4.5-10-10
			S119.2,146.6,124.7,146.6z M248.7,216.6h-124c-5.5,0-10-4.5-10-10s4.5-10,10-10h124c5.5,0,10,4.5,10,10S254.2,216.6,248.7,216.6z"
			/>
	</g>
</g>
</svg>
